# xmcd CD database file
#
# Track frame offsets:
#	180
#	19412
#	36317
#	52821
#	68294
#	86273
#	104363
#	118551
#	136931
#	155553
#	174695
#	189772
#
# Disc length: 2780 seconds
#
# Revision: 0
# Processed by: cddbd v1.4PL0 Copyright (c) Steve Scherf et al.
# Submitted via: CDex 1.40Release
#
DISCID=900ada0c
DTITLE=Chris Spedding - One Step Ahead Of The Blues
DYEAR=2002
DGENRE=Blues
TTITLE0=Cajun Moon
TTITLE1=I Wouldn't Treat A Dog
TTITLE2=No Expectations
TTITLE3=Remember
TTITLE4=Riverboat
TTITLE5=Go To The Mardi Gras
TTITLE6=Albatross
TTITLE7=One Step Ahead Of The Blues
TTITLE8=Mother Earth
TTITLE9=Dollar Of My Pain
TTITLE10=Young Man Blues
TTITLE11=Lonely Avenue
EXTD=YEAR: 2002 ID3G: 0
EXTT0=
EXTT1=
EXTT2=
EXTT3=
EXTT4=
EXTT5=
EXTT6=
EXTT7=
EXTT8=
EXTT9=
EXTT10=
EXTT11=
PLAYORDER=
